{
	"asset":{
		"generator":"Khronos glTF Blender I/O v3.5.30",
		"version":"2.0"
	},
	"scene":0,
	"scenes":[
		{
			"name":"Scene",
			"nodes":[
				0
			]
		}
	],
	"nodes":[
		{
			"mesh":0,
			"name":"Aset_food_fruit_S_tezbbgrra_LOD0"
		}
	],
	"materials":[
		{
			"doubleSided":true,
			"name":"Pear",
			"normalTexture":{
				"index":0
			},
			"pbrMetallicRoughness":{
				"baseColorTexture":{
					"index":1
				},
				"metallicFactor":0,
				"metallicRoughnessTexture":{
					"index":2
				}
			}
		}
	],
	"meshes":[
		{
			"name":"Aset_food_fruit_S_tezbbgrra_LOD0",
			"primitives":[
				{
					"attributes":{
						"POSITION":0,
						"TEXCOORD_0":1,
						"NORMAL":2
					},
					"indices":3,
					"material":0
				}
			]
		}
	],
	"textures":[
		{
			"sampler":0,
			"source":0
		},
		{
			"sampler":0,
			"source":1
		},
		{
			"sampler":0,
			"source":2
		}
	],
	"images":[
		{
			"mimeType":"image/jpeg",
			"name":"Pear_4K_Normal",
			"uri":"Pear_4K_Normal.jpg"
		},
		{
			"mimeType":"image/jpeg",
			"name":"Pear_4K_Albedo",
			"uri":"Pear_4K_Albedo.jpg"
		},
		{
			"mimeType":"image/png",
			"name":"Pear_4K_Roughness",
			"uri":"Pear_4K_Roughness.png"
		}
	],
	"accessors":[
		{
			"bufferView":0,
			"componentType":5126,
			"count":5093,
			"max":[
				0.03488859161734581,
				0.07279215008020401,
				0.03697425127029419
			],
			"min":[
				-0.03488859161734581,
				-0.07279215008020401,
				-0.03697424381971359
			],
			"type":"VEC3"
		},
		{
			"bufferView":1,
			"componentType":5126,
			"count":5093,
			"type":"VEC2"
		},
		{
			"bufferView":2,
			"componentType":5126,
			"count":5093,
			"type":"VEC3"
		},
		{
			"bufferView":3,
			"componentType":5123,
			"count":27522,
			"type":"SCALAR"
		}
	],
	"bufferViews":[
		{
			"buffer":0,
			"byteLength":61116,
			"byteOffset":0,
			"target":34962
		},
		{
			"buffer":0,
			"byteLength":40744,
			"byteOffset":61116,
			"target":34962
		},
		{
			"buffer":0,
			"byteLength":61116,
			"byteOffset":101860,
			"target":34962
		},
		{
			"buffer":0,
			"byteLength":55044,
			"byteOffset":162976,
			"target":34963
		}
	],
	"samplers":[
		{
			"magFilter":9729,
			"minFilter":9987
		}
	],
	"buffers":[
		{
			"byteLength":218020,
			"uri":"Pear_LOD0.bin"
		}
	]
}
