<?xml version="1.0" encoding="UTF-8"?><svg id="Warstwa_2" xmlns="http://www.w3.org/2000/svg" viewBox="0 0 602.8 679.2"><g id="Warstwa_1-2"><path d="m564,429.88v-180.64c22.41-6.88,38.79-27.42,38.79-52.12,0-30.22-24.53-54.75-54.75-54.75-14.43,0-27.42,5.69-37.18,14.77l-156.28-90.07c.93-3.99,1.53-8.06,1.53-12.31,0-30.22-24.53-54.75-54.75-54.75s-54.75,24.53-54.75,54.75c0,4.24.59,8.32,1.53,12.31l-156.2,90.15c-9.76-9.08-22.84-14.77-37.18-14.77-30.22,0-54.75,24.53-54.75,54.75,0,24.62,16.38,45.25,38.79,52.12v180.64c-22.5,6.79-38.79,27.33-38.79,52.04,0,30.22,24.53,54.75,54.75,54.75,14.43,0,27.42-5.69,37.18-14.86l156.2,90.24c-.93,3.99-1.53,8.06-1.53,12.31,0,30.22,24.53,54.75,54.75,54.75s54.75-24.53,54.75-54.75c0-4.24-.59-8.32-1.53-12.31l156.2-90.24c9.76,9.08,22.84,14.86,37.27,14.86,30.22,0,54.75-24.53,54.75-54.75-.08-24.7-16.47-45.25-38.79-52.12Zm-278.61,142.44c-8.06,2.46-15.28,6.62-21.22,12.14l-156.2-90.24c.93-3.99,1.53-8.06,1.53-12.31,0-24.62-16.38-45.25-38.79-52.12v-180.56c8.06-2.46,15.28-6.62,21.22-12.14l156.2,90.24c-.93,3.99-1.53,8.06-1.53,12.31,0,24.62,16.38,45.25,38.79,52.12v180.56h0Zm-21.31-272.66l-156.2-90.24c.93-3.99,1.53-8.06,1.53-12.31s-.59-8.32-1.53-12.31l156.28-90.24c9.76,9.08,22.84,14.86,37.18,14.86s27.42-5.69,37.18-14.86l156.2,90.24c-.93,3.99-1.53,8.06-1.53,12.31s.59,8.32,1.53,12.31l-156.2,90.24c-9.76-9.08-22.75-14.77-37.18-14.77-14.43-.08-27.42,5.6-37.27,14.77Zm267.99,130.22c-22.41,6.88-38.79,27.42-38.79,52.12,0,4.24.59,8.32,1.53,12.31l-156.28,90.15c-6.03-5.6-13.24-9.68-21.22-12.14v-180.64c22.41-6.88,38.79-27.42,38.79-52.12,0-4.24-.59-8.32-1.53-12.31l156.28-90.24c5.94,5.6,13.24,9.68,21.22,12.14v180.73h0Z"/></g></svg>