<?xml version="1.0" encoding="UTF-8"?><svg id="Warstwa_2" xmlns="http://www.w3.org/2000/svg" viewBox="0 0 616.43 616.43"><g id="Warstwa_1-2"><path d="m592.21,188.24c-23.41-55.33-62.47-102.36-111.65-135.6C431.38,19.41,372.01-.01,308.22,0,265.7,0,225.13,8.62,188.24,24.22c-55.33,23.41-102.36,62.47-135.59,111.66C19.42,185.05,0,244.43,0,308.21c0,42.52,8.63,83.1,24.23,119.98,23.41,55.33,62.47,102.36,111.65,135.59,49.18,33.23,108.55,52.65,172.34,52.65,42.52,0,83.09-8.63,119.98-24.23,55.33-23.4,102.36-62.47,135.59-111.65s52.65-108.55,52.64-172.34c.01-42.51-8.62-83.09-24.22-119.97ZM417.29,50.01c48.6,20.55,90.22,54.46,120.24,97.1h-84.11c-10.67-22.49-23.05-41.99-35.92-58.73-17.98-23.4-36.89-41.42-53.55-54.84,18.51,3.73,36.35,9.29,53.34,16.47Zm-95.07-12.1c1.87,1.2,3.85,2.5,5.92,3.91,11.19,7.59,25.04,18.26,39.47,32.4,18.61,18.22,38.18,42.18,54.48,72.89h-99.87V37.91Zm0,137.2h112.94c13.38,32.92,22.75,72.24,24.31,119.1h-137.25v-119.1Zm0,147.1h137.26c-1.57,46.87-10.94,86.19-24.32,119.11h-112.94v-119.11ZM151.56,75.85c30.03-20.29,64.17-34.9,100.93-42.31-6.79,5.47-13.96,11.72-21.29,18.77-23.51,22.63-48.68,53.71-68.18,94.8h-84.1c19.67-27.94,44.31-52.13,72.64-71.26Zm-101.54,123.3c3.48-8.22,7.33-16.24,11.55-24.04h89.69c-12.47,33.88-20.89,73.44-22.31,119.1H28.35c1.65-33.61,9.22-65.61,21.67-95.06Zm-21.68,123.06h100.61c1.43,45.66,9.84,85.22,22.3,119.11H61.58c-19.33-35.73-31.12-76.11-33.24-119.11Zm170.81,244.2c-48.59-20.55-90.21-54.45-120.23-97.09h84.1c10.67,22.48,23.05,41.98,35.92,58.73,17.97,23.39,36.89,41.41,53.55,54.84-18.51-3.73-36.35-9.29-53.34-16.48Zm95.07,12.1c-1.87-1.2-3.85-2.5-5.92-3.9-11.19-7.6-25.04-18.26-39.47-32.4-18.61-18.22-38.19-42.19-54.48-72.89h99.87v109.19Zm0-137.19h-112.94c-13.38-32.93-22.75-72.24-24.31-119.11h137.25v119.11Zm0-147.11h-137.26c1.57-46.86,10.94-86.18,24.31-119.1h112.95v119.1Zm0-147.1h-99.87c8.27-15.59,17.39-29.43,26.79-41.67,21.87-28.47,45.34-48.29,63.24-60.91,3.51-2.48,6.82-4.68,9.84-6.62v109.2Zm28,431.41v-109.2h99.87c-8.27,15.59-17.39,29.42-26.79,41.67-21.87,28.47-45.34,48.28-63.24,60.91-3.51,2.48-6.82,4.68-9.84,6.62Zm142.66-37.94c-30.03,20.29-64.17,34.89-100.93,42.31,6.79-5.47,13.96-11.71,21.29-18.77,23.51-22.63,48.67-53.72,68.18-94.8h84.1c-19.67,27.93-44.31,52.12-72.64,71.26Zm101.54-123.3c-3.48,8.22-7.34,16.24-11.55,24.04h-89.69c12.47-33.88,20.89-73.45,22.31-119.11h100.6c-1.65,33.61-9.22,65.61-21.67,95.07Zm-78.93-123.07c-1.43-45.66-9.84-85.22-22.3-119.1h89.67c19.33,35.73,31.12,76.12,33.23,119.1h-100.6Z"/></g></svg>