<?xml version="1.0" encoding="UTF-8"?><svg id="Warstwa_2" xmlns="http://www.w3.org/2000/svg" viewBox="0 0 635 635"><g id="Warstwa_1-2"><path d="m634.88,99.1c-.18-11.13-.59-20.46-1.83-29.09-.63-4.3-1.47-8.44-2.65-12.46-1.17-4.01-2.68-7.9-4.57-11.61-8.08-15.85-20.96-28.71-36.79-36.77-4.94-2.52-10.21-4.36-15.67-5.64-4.11-.97-8.34-1.64-12.79-2.14-6.68-.73-13.85-1.06-21.99-1.23C530.45,0,521.34,0,510.84,0H124.17C114.84,0,106.6,0,99.17.11c-11.15.18-20.49.6-29.13,1.84-4.31.63-8.45,1.47-12.47,2.65-4.02,1.17-7.91,2.68-11.62,4.57-15.84,8.07-28.71,20.94-36.78,36.77-2.52,4.95-4.36,10.22-5.64,15.69-.97,4.1-1.64,8.34-2.13,12.79-.74,6.68-1.07,13.86-1.23,22-.17,8.14-.17,17.25-.17,27.75v393.34c.02,16.55.1,29.44,1.16,40.77.54,5.66,1.34,10.96,2.61,16.07,1.27,5.11,3.04,10.03,5.4,14.67,8.07,15.82,20.92,28.73,36.78,36.81,4.94,2.52,10.2,4.35,15.67,5.64,4.1.96,8.33,1.64,12.78,2.13,6.67.73,13.83,1.06,21.96,1.23,8.13.17,17.22.17,27.7.17h386.89c9.32,0,17.54,0,24.96-.12,11.12-.18,20.45-.6,29.07-1.84,4.31-.62,8.44-1.47,12.46-2.64,4.01-1.17,7.9-2.68,11.6-4.57,7.93-4.04,15.11-9.29,21.31-15.5,6.21-6.21,11.44-13.39,15.48-21.31,1.43-2.79,2.64-5.7,3.65-8.68,1.52-4.47,2.58-9.1,3.35-13.93.76-4.83,1.23-9.88,1.55-15.33.63-11.13.62-23.97.62-40.15V124.06c0-9.32,0-17.54-.12-24.96Zm-37.19,464.92c-.4,1.93-.85,3.6-1.36,5.08-.5,1.49-1.05,2.79-1.68,4.03-2.36,4.63-5.42,8.83-9.06,12.47-3.62,3.63-7.82,6.69-12.44,9.04-2.18,1.11-4.59,2-7.8,2.76-2.39.56-5.22,1.04-8.58,1.41-5.04.56-11.27.87-18.84,1.03-7.58.15-16.5.16-26.98.16H124.06c-9.31,0-17.4,0-24.4-.12-10.51-.15-18.58-.59-24.62-1.48-3.02-.43-5.53-.97-7.67-1.6-2.13-.62-3.89-1.32-5.53-2.16-4.61-2.35-8.81-5.41-12.43-9.04-3.63-3.63-6.69-7.84-9.05-12.47-1.04-2.05-1.89-4.3-2.62-7.23-.55-2.19-1.01-4.74-1.39-7.76-.56-4.53-.92-10.08-1.11-16.81-.14-5.1-.2-10.87-.23-17.37l154.49-180.24.12-.13.1-.12.05-.05c3.52-4.11,6.56-7.66,9.19-10.63,3.94-4.45,6.99-7.59,9.13-9.4,1.06-.92,1.89-1.51,2.49-1.88s.97-.53,1.28-.64c1.71-.61,3.49-.91,5.27-.91,1.87,0,3.72.33,5.5.99.42.16.95.4,1.95,1.12.75.54,1.73,1.34,2.94,2.49,1.81,1.72,4.12,4.19,6.92,7.41,2.8,3.22,6.11,7.18,10.01,11.87l89.04,106.84c6.45,7.72,11.4,13.73,16.47,18.87,2.53,2.57,5.13,4.94,8.03,7.08,2.9,2.14,6.15,4.04,9.67,5.43h.01c5.99,2.38,12.33,3.56,18.65,3.56,4.88,0,9.75-.7,14.47-2.1,3.64-1.07,7.06-2.66,10.15-4.53,2.32-1.41,4.48-2.97,6.59-4.64,3.15-2.51,6.19-5.28,9.47-8.42,3.28-3.15,6.8-6.67,10.83-10.7l16.57-16.57c3.65-3.64,6.79-6.78,9.5-9.41,4.05-3.93,7.16-6.68,9.31-8.25,1.08-.79,1.9-1.29,2.5-1.61.6-.31.97-.45,1.3-.54,1.41-.41,2.87-.62,4.34-.62,2.07,0,4.14.41,6.09,1.21.42.18.93.44,1.87,1.15.7.53,1.61,1.31,2.73,2.42,1.68,1.66,3.81,4.04,6.41,7.15,2.59,3.11,5.65,6.93,9.27,11.45l91.21,114.01c-.33,3.25-.74,6.03-1.24,8.4Zm2.31-63.09l-64.95-81.18c-3.22-4.03-6.08-7.61-8.76-10.84-4.02-4.85-7.6-8.96-11.59-12.64-1.99-1.84-4.1-3.57-6.41-5.13s-4.82-2.95-7.48-4.05l-.05-.02c-6.19-2.55-12.78-3.84-19.41-3.84-4.71,0-9.44.66-14.04,1.99h-.01c-3.7,1.06-7.17,2.67-10.3,4.56-2.36,1.42-4.55,2.99-6.69,4.69-3.2,2.54-6.29,5.36-9.63,8.55-3.34,3.2-6.92,6.79-11.03,10.89l-16.56,16.57c-7.15,7.16-12.38,12.34-16.05,15.41-1.83,1.55-3.23,2.55-4.21,3.14-.99.6-1.52.79-1.94.92h-.01c-1.5.45-3.04.67-4.56.67-1.97,0-3.92-.37-5.75-1.1-.41-.16-.91-.41-1.83-1.08-.69-.5-1.59-1.25-2.7-2.32-1.67-1.59-3.8-3.87-6.39-6.86-2.6-2.98-5.65-6.64-9.27-10.98l-89.04-106.85c-3.47-4.17-6.56-7.87-9.44-11.21-4.32-5.01-8.15-9.22-12.39-12.96-2.12-1.87-4.35-3.61-6.8-5.17-2.44-1.56-5.1-2.92-7.92-3.96-2.84-1.05-5.76-1.85-8.72-2.38-2.95-.53-5.94-.79-8.94-.79-5.73,0-11.48.98-16.97,2.92-3.78,1.34-7.27,3.25-10.37,5.44-2.34,1.64-4.5,3.44-6.58,5.36-3.13,2.9-6.13,6.08-9.36,9.68-3.17,3.54-6.56,7.5-10.44,12.03l-.22.25L35,470.19V124.17c0-9.33,0-17.43.11-24.45.16-10.53.6-18.61,1.48-24.66.44-3.03.98-5.54,1.61-7.68.62-2.14,1.32-3.91,2.16-5.55,4.71-9.25,12.22-16.76,21.48-21.47,2.18-1.11,4.6-2,7.81-2.76,2.4-.57,5.24-1.05,8.61-1.42,5.05-.56,11.29-.87,18.88-1.03,7.59-.15,16.53-.15,27.03-.15h386.67c9.33,0,17.43,0,24.45.11,10.52.16,18.6.59,24.64,1.48,3.03.44,5.54.98,7.68,1.6,2.14.63,3.9,1.33,5.54,2.16,9.26,4.72,16.79,12.24,21.5,21.48,1.1,2.18,1.99,4.6,2.75,7.81.57,2.39,1.04,5.23,1.41,8.59.56,5.04.88,11.27,1.03,18.85.16,7.58.16,16.5.16,26.98v376.87Z"/><path d="m464.33,164.37c-3.87-9.14-10.29-16.87-18.4-22.35-4.05-2.74-8.53-4.91-13.32-6.4-4.79-1.49-9.88-2.29-15.11-2.29-6.97,0-13.7,1.42-19.79,4-9.15,3.87-16.87,10.3-22.35,18.4-2.74,4.05-4.92,8.53-6.41,13.32-1.49,4.79-2.28,9.89-2.28,15.11-.01,6.97,1.42,13.7,4,19.79,3.87,9.15,10.29,16.88,18.4,22.35,4.05,2.74,8.53,4.92,13.32,6.41s9.88,2.29,15.11,2.29c6.97,0,13.7-1.43,19.79-4.01,9.15-3.87,16.87-10.29,22.35-18.39,2.74-4.06,4.92-8.54,6.4-13.33,1.5-4.79,2.29-9.88,2.29-15.11.01-6.97-1.42-13.7-4-19.79Zm-32.23,25.95c-1.19,2.82-3.22,5.27-5.76,6.98-1.27.86-2.65,1.53-4.13,1.99-1.47.45-3.03.7-4.71.71-2.23-.01-4.27-.45-6.16-1.24-2.82-1.19-5.27-3.22-6.98-5.76-.86-1.26-1.53-2.65-1.98-4.12-.46-1.48-.71-3.04-.71-4.72,0-2.23.44-4.27,1.23-6.16,1.19-2.81,3.22-5.27,5.76-6.98,1.27-.85,2.65-1.52,4.12-1.98,1.48-.46,3.04-.71,4.72-.71,2.23,0,4.27.44,6.16,1.24,2.82,1.18,5.27,3.22,6.98,5.75.86,1.27,1.53,2.65,1.98,4.13.46,1.47.71,3.04.71,4.71,0,2.24-.44,4.28-1.23,6.16Z"/></g></svg>