<?xml version="1.0" encoding="UTF-8"?><svg id="Warstwa_2" xmlns="http://www.w3.org/2000/svg" viewBox="0 0 476.33 708.07"><g id="Warstwa_1-2"><path d="m476.33,238.16c.01-65.72-26.68-125.36-69.76-168.41C363.53,26.68,303.88,0,238.16,0c-65.71,0-125.36,26.68-168.4,69.76C26.68,112.8-.01,172.44,0,238.16c-.01,43.96,11.99,85.24,32.85,120.57h-.01s.07.09.09.13c.06.09.09.18.14.27h.02c15.18,26.87,36.92,48.01,53.86,67.53,8.53,9.76,15.84,19.02,20.74,27.68,4.94,8.71,7.44,16.47,7.61,24.24v131.96c.01,40.71,32.99,73.71,73.72,73.72h10.57c7.2,14.08,21.68,23.81,38.57,23.81s31.38-9.74,38.58-23.81h10.57c40.72-.01,73.71-33,73.72-73.72v-131.95h0c.17-7.79,2.67-15.55,7.61-24.25,7.33-13.03,20.18-27.26,34.24-42.75,13.93-15.46,29.02-32.29,40.37-52.46h.01c.04-.06.08-.14.12-.21.03-.07.08-.11.11-.18h-.01c20.86-35.33,32.86-76.61,32.85-120.57Zm-160.96,400.44c-7.23,7.21-17.04,11.62-28.07,11.63h-98.28c-11.02-.01-20.83-4.42-28.07-11.63-7.21-7.23-11.62-17.06-11.63-28.07v-7.37l166.13,35.32s-.05.08-.09.11Zm11.63-28.07c0,2.43-.3,4.77-.71,7.07l-176.96-37.62v-46.36l177.67,37.78v39.14Zm0-62.34l-177.67-37.78v-15.18h177.67v52.96Zm87-206.41l-.14.23-.09.15c-11.76,21.31-31.7,41.28-50.01,62.1-9.14,10.48-17.86,21.24-24.71,33.24-4.15,7.31-7.45,15.26-9.59,23.69h-182.59c-2.14-8.44-5.44-16.38-9.6-23.69-10.28-17.95-24.71-33.3-38.57-48.74-13.91-15.35-27.29-30.64-36.13-46.59l-.11-.18-.12-.21c-17.99-30.37-28.3-65.71-28.31-103.62.01-56.43,22.83-107.35,59.8-144.34,36.99-36.98,87.92-59.79,144.35-59.8,56.43.01,107.35,22.82,144.35,59.8,36.97,36.99,59.79,87.92,59.8,144.34-.01,37.91-10.32,73.25-28.31,103.62Z"/></g></svg>