<?xml version="1.0"?>
<svg xmlns="http://www.w3.org/2000/svg" viewBox="0 0 16 16">
    <path d="M 11.380859 1.0019531 C 10.684859 1.0019531 10.029109 1.2716719 9.5371094 1.7636719 L 7.7304688 3.5703125 C 7.0804687 4.2203125 6.8520625 5.1306562 7.0390625 5.9726562 L 8.0371094 4.9746094 C 8.1081094 4.7206094 8.2375 4.4773437 8.4375 4.2773438 L 10.246094 2.4707031 C 10.549094 2.1677031 10.951859 2.0019531 11.380859 2.0019531 C 11.809859 2.0019531 12.212203 2.1672813 12.533203 2.4882812 C 12.836203 2.7912812 13.003906 3.1940469 13.003906 3.6230469 C 13.003906 4.0520469 12.836203 4.4567656 12.533203 4.7597656 L 10.726562 6.5664062 C 10.533563 6.7594062 10.293062 6.8860313 10.039062 6.9570312 L 9.0273438 7.9707031 C 9.2113437 8.0107031 9.3997969 8.0351563 9.5917969 8.0351562 C 10.287797 8.0351562 10.942594 7.7654375 11.433594 7.2734375 L 13.240234 5.4667969 C 14.255234 4.4507969 14.256656 2.7976719 13.222656 1.7636719 C 12.731656 1.2716719 12.076859 1.0019531 11.380859 1.0019531 z M 9.4941406 4.9960938 A 0.50005 0.50005 0 0 0 9.1503906 5.1464844 L 5.1503906 9.1464844 A 0.50063763 0.50063763 0 1 0 5.8574219 9.8554688 L 9.8574219 5.8554688 A 0.50005 0.50005 0 0 0 9.4941406 4.9960938 z M 5.4160156 6.9648438 C 4.7200156 6.9648438 4.0652188 7.2355625 3.5742188 7.7265625 L 1.765625 9.5351562 C 0.749625 10.551156 0.75015625 12.204281 1.7851562 13.238281 C 2.2921562 13.746281 2.9599531 14 3.6269531 14 C 4.2939531 14 4.96075 13.745281 5.46875 13.238281 L 7.2753906 11.431641 C 7.9253906 10.781641 8.15575 9.8712969 7.96875 9.0292969 L 6.9707031 10.027344 C 6.8987031 10.282344 6.7683594 10.524609 6.5683594 10.724609 L 4.7617188 12.53125 C 4.1357187 13.15625 3.1146562 13.156719 2.4726562 12.511719 C 2.1696563 12.208719 2.0039062 11.805953 2.0039062 11.376953 C 2.0039062 10.947953 2.1696563 10.545187 2.4726562 10.242188 L 4.28125 8.4335938 C 4.47725 8.2375938 4.7185156 8.1062031 4.9785156 8.0332031 L 5.9804688 7.03125 C 5.7964687 6.99125 5.6090156 6.9648438 5.4160156 6.9648438 z"/>
</svg>
