<?xml version="1.0"?>
<svg xmlns="http://www.w3.org/2000/svg" viewBox="0 0 16 16">
    <path d="M 11.380859 0.9921875 C 10.705484 0.9921875 10.028609 1.2370156 9.5371094 1.7285156 L 7.7304688 3.5351562 C 7.6984687 3.5671563 7.6774375 3.6056719 7.6484375 3.6386719 L 8.3535156 4.3457031 C 8.3825156 4.3117031 8.4055 4.2741875 8.4375 4.2421875 L 10.246094 2.4355469 C 10.549094 2.1325469 10.951859 1.9667969 11.380859 1.9667969 C 11.809859 1.9667969 12.212203 2.132125 12.533203 2.453125 C 13.158203 3.078125 13.158203 4.0986094 12.533203 4.7246094 L 10.726562 6.53125 C 10.695562 6.56225 10.657047 6.5862344 10.623047 6.6152344 L 11.330078 7.3222656 C 11.363078 7.2922656 11.401594 7.2702813 11.433594 7.2382812 L 13.240234 5.4316406 C 14.256234 4.4156406 14.257656 2.7625156 13.222656 1.7285156 C 12.731656 1.2370156 12.056234 0.9921875 11.380859 0.9921875 z M 3.5175781 2.9960938 A 0.50005 0.50005 0 0 0 3.1699219 3.8554688 L 5.1699219 5.8554688 A 0.50063759 0.50063759 0 0 0 5.8769531 5.1464844 L 3.8769531 3.1464844 A 0.50005 0.50005 0 0 0 3.5175781 2.9960938 z M 3.7675781 7.5839844 C 3.7095781 7.6329844 3.64775 7.6735156 3.59375 7.7285156 L 1.7851562 9.5351562 C 0.76915625 10.551156 0.7696875 12.204281 1.8046875 13.238281 C 2.3126875 13.746281 2.9794844 14 3.6464844 14 C 4.3134844 14 4.9802812 13.745281 5.4882812 13.238281 L 7.296875 11.431641 C 7.351875 11.376641 7.3904531 11.313859 7.4394531 11.255859 L 6.7324219 10.548828 C 6.6874219 10.608828 6.6428906 10.669609 6.5878906 10.724609 L 4.7792969 12.53125 C 4.1532969 13.15625 3.1351875 13.156719 2.4921875 12.511719 C 2.1891875 12.208719 2.0214844 11.805953 2.0214844 11.376953 C 2.0214844 10.947953 2.1891875 10.545187 2.4921875 10.242188 L 4.3007812 8.4355469 C 4.3547813 8.3815469 4.4146094 8.3379688 4.4746094 8.2929688 L 3.7675781 7.5839844 z M 9.5175781 8.9960938 A 0.50005 0.50005 0 0 0 9.1699219 9.8554688 L 11.169922 11.855469 A 0.50063773 0.50063773 0 0 0 11.876953 11.146484 L 9.8769531 9.1464844 A 0.50005 0.50005 0 0 0 9.5175781 8.9960938 z"/>
</svg>
